<svg width="400" height="300" viewBox="0 0 400 300" xmlns="http://www.w3.org/2000/svg">
  <defs>
    <linearGradient id="waveGradient" x1="0%" y1="0%" x2="100%" y2="100%">
      <stop offset="0%" stop-color="#2196F3" stop-opacity="0.7" />
      <stop offset="100%" stop-color="#0D47A1" stop-opacity="0.9" />
    </linearGradient>
  </defs>
  <rect width="400" height="300" fill="#e1f5fe" />
  
  <!-- Background waves -->
  <path d="M0,60 C100,100 200,20 400,80 L400,300 L0,300 Z" fill="url(#waveGradient)" opacity="0.3" />
  <path d="M0,100 C150,150 250,50 400,120 L400,300 L0,300 Z" fill="url(#waveGradient)" opacity="0.2" />
  <path d="M0,140 C200,180 300,100 400,150 L400,300 L0,300 Z" fill="url(#waveGradient)" opacity="0.1" />
  
  <!-- Small decorative elements -->
  <circle cx="80" cy="50" r="15" fill="#2196F3" opacity="0.2" />
  <circle cx="320" cy="70" r="20" fill="#2196F3" opacity="0.1" />
  <circle cx="200" cy="30" r="10" fill="#2196F3" opacity="0.15" />
  
  <!-- Code-like graphics -->
  <g opacity="0.6">
    <rect x="50" y="100" width="80" height="10" rx="2" fill="#0D47A1" opacity="0.3" />
    <rect x="50" y="120" width="120" height="10" rx="2" fill="#0D47A1" opacity="0.3" />
    <rect x="50" y="140" width="60" height="10" rx="2" fill="#0D47A1" opacity="0.3" />
    
    <rect x="240" y="90" width="100" height="10" rx="2" fill="#0D47A1" opacity="0.3" />
    <rect x="240" y="110" width="70" height="10" rx="2" fill="#0D47A1" opacity="0.3" />
    <rect x="240" y="130" width="90" height="10" rx="2" fill="#0D47A1" opacity="0.3" />
  </g>
</svg> 