<svg width="500" height="400" viewBox="0 0 500 400" xmlns="http://www.w3.org/2000/svg">
  <!-- Background Elements -->
  <circle cx="250" cy="200" r="150" fill="#e3f2fd" opacity="0.3"/>
  <circle cx="250" cy="200" r="100" fill="#bbdefb" opacity="0.2"/>
  
  <!-- Tech Icons -->
  <g transform="translate(150, 150)">
    <!-- Code Brackets -->
    <path d="M20 20 L40 40 L20 60" stroke="#1a237e" stroke-width="4" fill="none"/>
    <path d="M80 20 L60 40 L80 60" stroke="#1a237e" stroke-width="4" fill="none"/>
    
    <!-- Circuit Lines -->
    <path d="M40 40 L60 40" stroke="#0d47a1" stroke-width="2" fill="none"/>
    <path d="M40 40 L40 60" stroke="#0d47a1" stroke-width="2" fill="none"/>
    <path d="M60 40 L60 60" stroke="#0d47a1" stroke-width="2" fill="none"/>
    
    <!-- Dots -->
    <circle cx="40" cy="40" r="4" fill="#1a237e"/>
    <circle cx="60" cy="40" r="4" fill="#1a237e"/>
    <circle cx="40" cy="60" r="4" fill="#1a237e"/>
    <circle cx="60" cy="60" r="4" fill="#1a237e"/>
  </g>
  
  <!-- Abstract Shapes -->
  <path d="M100 100 Q150 50 200 100 T300 100" stroke="#2196f3" stroke-width="3" fill="none" opacity="0.5"/>
  <path d="M100 300 Q150 350 200 300 T300 300" stroke="#2196f3" stroke-width="3" fill="none" opacity="0.5"/>
  
  <!-- Tech Symbols -->
  <g transform="translate(300, 200)">
    <!-- Binary Numbers -->
    <text x="0" y="0" font-family="monospace" font-size="24" fill="#1a237e">1010</text>
    <text x="0" y="30" font-family="monospace" font-size="24" fill="#1a237e">0101</text>
  </g>
</svg> 